<?xml version="1.0" encoding="UTF-8"?>
<svg version="1.1" xmlns="http://www.w3.org/2000/svg" width="512" height="512">
<path d="M0 0 C0.66370605 0.19835449 1.32741211 0.39670898 2.01123047 0.60107422 C19.65672002 6.05750235 34.94345329 16.24811745 49 28 C50.6638035 29.33690444 52.32943133 30.67155886 54 32 C56.93584501 30.93242 59.48603469 29.71409724 62.1875 28.125 C76.78841826 19.691711 92.87428508 17.93665559 109.08789062 22.17016602 C122.9296409 26.10637259 135.24456196 35.28804612 142.76171875 47.68359375 C150.98748396 63.07122395 154.31580905 79.97627527 149.375 97.125 C143.66408715 112.54645456 134.60100821 122.8987646 121 132 C123.04223506 139.97188249 125.48094097 147.79885394 128.01806641 155.62426758 C128.27378418 156.41986084 128.52950195 157.2154541 128.79296875 158.03515625 C129.0252417 158.7506665 129.25751465 159.46617676 129.49682617 160.20336914 C130 162 130 162 130 164 C130.80875895 163.99723462 131.61751789 163.99446924 132.45078468 163.99162006 C152.13085105 163.92536329 171.81089819 163.87572089 191.49105263 163.84456348 C201.00823599 163.82909546 210.5253449 163.80800714 220.04248047 163.77368164 C228.33774152 163.74377734 236.63294865 163.72442453 244.92826211 163.71773452 C249.32046393 163.71382401 253.71251148 163.70463509 258.10466385 163.68280983 C262.23980858 163.66242841 266.37473566 163.65616954 270.50992584 163.66067696 C272.02644662 163.6598525 273.54297476 163.65389662 275.05945206 163.64238358 C277.13329445 163.627413 279.20631979 163.6310623 281.28018188 163.63923645 C282.43979746 163.63647107 283.59941303 163.63370569 284.79416847 163.63085651 C289.08906883 164.12540355 292.46957264 165.57135879 295.64453125 168.53515625 C299.37215707 173.40974386 300.12609016 175.51707157 300.14717102 181.64726257 C300.15084771 182.33823636 300.1545244 183.02921015 300.1583125 183.74112254 C300.16936884 186.06790097 300.17319649 188.39463476 300.17700195 190.72143555 C300.18326522 192.38522993 300.18991189 194.0490229 300.19691467 195.71281433 C300.21433902 200.24194221 300.2248807 204.77105952 300.2331202 209.30021262 C300.23826815 212.12951895 300.24434403 214.95882199 300.25063133 217.78812599 C300.26968886 226.63918752 300.28391785 235.49024068 300.2922433 244.34131879 C300.3020137 254.56020813 300.32832571 264.77888074 300.36874419 274.99769372 C300.39890561 282.89417063 300.41371227 290.79058543 300.41702431 298.68711883 C300.4193751 303.40408135 300.42833895 308.12081249 300.45348549 312.83771324 C300.47677118 317.27745082 300.48099749 321.71680478 300.47072411 326.1565876 C300.47022873 327.78395743 300.47654982 329.41134616 300.49028015 331.03865814 C300.5080138 333.2655027 300.50088718 335.49097273 300.48774719 337.71781921 C300.49013555 338.96240748 300.4925239 340.20699575 300.49498463 341.48929882 C299.80133212 346.40906103 298.07274025 350.2193289 294.2043457 353.54262924 C288.7874488 356.09206948 284.13255305 356.55144913 278.1875 356.45410156 C276.76660316 356.45497772 276.76660316 356.45497772 275.31700134 356.45587158 C272.21095099 356.45310269 269.10588104 356.42206709 266 356.390625 C263.83667525 356.38315837 261.67334371 356.37746743 259.51000977 356.37347412 C253.83487045 356.35825115 248.16014502 356.31899786 242.48516846 356.2746582 C236.68678383 356.23363357 230.88833189 356.21544775 225.08984375 356.1953125 C213.72638133 356.15250057 202.36322518 356.08428955 191 356 C191.48460693 357.37514771 191.48460693 357.37514771 191.97900391 358.77807617 C194.24891536 365.94116117 194.2868706 374.9180205 191.4375 381.9375 C186.58104092 390.95421248 179.7078441 396.76405197 170 400 C166.94624385 400.10298304 163.91504152 400.14780294 160.86094666 400.14717102 C159.91397134 400.15084771 158.96699602 400.1545244 157.99132448 400.1583125 C154.80402535 400.16936458 151.6167588 400.1731958 148.42944336 400.17700195 C146.14968766 400.18326553 143.86993299 400.18991224 141.59017944 400.19691467 C135.38534163 400.21433602 129.18051153 400.22487991 122.97565532 400.2331202 C119.09921748 400.2382688 115.22278204 400.24434465 111.3463459 400.25063133 C100.60871458 400.2675036 89.87108698 400.28213746 79.13344479 400.28938007 C76.34718258 400.2912899 73.56092038 400.29321024 70.7746582 400.29516602 C69.73591775 400.29589163 69.73591775 400.29589163 68.67619265 400.2966319 C57.46689769 400.30492605 46.25770967 400.33025192 35.04846137 400.36274669 C23.53348475 400.39585477 12.01857845 400.41349981 0.5035525 400.41702431 C-5.95895141 400.41937465 -12.42128639 400.42833306 -18.88374519 400.45348549 C-24.96666811 400.47677745 -31.04931103 400.48099468 -37.132267 400.47072411 C-39.36147048 400.47022889 -41.59068779 400.4765451 -43.81984901 400.49028015 C-46.87091994 400.50802307 -49.92098866 400.50088055 -52.97206116 400.48774719 C-54.28518543 400.50420106 -54.28518543 400.50420106 -55.62483746 400.52098733 C-64.74303294 400.42668451 -72.55735047 397.32149885 -79.23828125 391.07421875 C-82.40685277 387.34359463 -86 382.04797649 -86 377 C-86.54092285 376.83274414 -87.0818457 376.66548828 -87.63916016 376.49316406 C-93.43217568 374.64049329 -98.89205517 372.37454555 -104.375 369.75 C-105.20717041 369.35232422 -106.03934082 368.95464844 -106.89672852 368.54492188 C-121.82966229 361.29307135 -134.96385124 351.39003648 -147 340 C-148.38445312 338.72962891 -148.38445312 338.72962891 -149.796875 337.43359375 C-180.45672222 308.63781608 -197.04448642 266.54427663 -198.92529297 224.94262695 C-199.73849894 195.54102494 -193.94295976 164.22848037 -182.56640625 137.05859375 C-181.87705309 134.55315156 -181.936803 133.37137028 -183 131 C-184.76732099 129.5305191 -184.76732099 129.5305191 -187 128.3125 C-199.60485212 120.28941159 -207.6434108 108.48484867 -211.33984375 94.03515625 C-214.32313041 78.23538098 -212.74564567 61.07217981 -203.8203125 47.4375 C-193.11905073 33.10791342 -179.80220537 22.93589822 -161.76171875 20.28515625 C-147.52190543 18.81485021 -133.31555653 21.38631292 -121 29 C-120.33484375 29.56589844 -119.6696875 30.13179687 -118.984375 30.71484375 C-117.11181383 32.20157946 -117.11181383 32.20157946 -114.98828125 31.90234375 C-112.5581074 30.79945542 -111.09486931 29.43224861 -109.1875 27.5625 C-79.97592717 0.87656071 -38.35721648 -11.73419007 0 0 Z " fill="#010201" transform="translate(212,58)"/>
<path d="M0 0 C1.62083496 -0.01522705 1.62083496 -0.01522705 3.27441406 -0.03076172 C34.37589786 0.30554735 61.25522489 20.18964308 82.625 41 C106.97624999 66.06878222 143.8125 116.29432229 143.8125 152.4375 C142.54656006 152.43637207 141.28062012 152.43524414 139.97631836 152.43408203 C135.25890798 152.43776571 130.54251405 152.48067171 125.82543945 152.53515625 C123.78774582 152.5532734 121.74992974 152.56089256 119.7121582 152.55761719 C116.77459775 152.55474778 113.83955436 152.59018954 110.90234375 152.6328125 C109.54567848 152.6191716 109.54567848 152.6191716 108.16160583 152.60525513 C102.46293514 152.73486209 99.35794815 153.8402948 95.18434143 157.76266479 C92.25436987 161.33976883 91.56084766 164.22060006 91.5340271 168.81585693 C91.52286362 169.90678146 91.51170013 170.99770599 91.50019836 172.12168884 C91.49695808 173.90948509 91.49695808 173.90948509 91.49365234 175.73339844 C91.48360672 176.99219315 91.4735611 178.25098785 91.46321106 179.54792786 C91.4359177 182.99591521 91.42076369 186.44386172 91.40778303 189.89192867 C91.39214955 193.49678671 91.36536003 197.10156137 91.3397522 200.70635986 C91.29296823 207.53085219 91.2562223 214.35536021 91.22307932 221.17993093 C91.17770751 230.40317745 91.1168364 239.62632082 91.05683136 248.84948158 C90.96271394 263.37876934 90.88931103 277.90808658 90.8125 292.4375 C68.7025 292.4375 46.5925 292.4375 23.8125 292.4375 C22.8225 285.5075 22.8225 285.5075 21.8125 278.4375 C18.50101842 270.61036171 13.45697943 263.83823638 5.40625 260.4140625 C0.50224968 259.07267418 -4.50046311 258.3876115 -9.51953125 257.625 C-35.84665107 253.57951796 -70.86034319 245.63233366 -88.16015625 223.07421875 C-89.88672194 220.32353045 -91.03779395 217.46854323 -92.1875 214.4375 C-94.34626262 209.15445223 -96.46231531 204.82789625 -100.1875 200.4375 C-100.1875 199.7775 -100.1875 199.1175 -100.1875 198.4375 C-100.74566406 198.16164063 -101.30382812 197.88578125 -101.87890625 197.6015625 C-103.44329403 196.81275106 -104.99280168 195.99384465 -106.52734375 195.1484375 C-114.4786487 191.05919495 -121.96582313 189.81279175 -130.73046875 192.1015625 C-139.80254134 195.69291654 -145.40205685 201.72686726 -149.375 210.49609375 C-149.643125 211.13675781 -149.91125 211.77742187 -150.1875 212.4375 C-150.5175 212.4375 -150.8475 212.4375 -151.1875 212.4375 C-152.64745334 182.75178216 -145.75529079 152.73108933 -134.1875 125.4375 C-132.68123047 125.41623047 -132.68123047 125.41623047 -131.14453125 125.39453125 C-121.59477332 125.11634877 -113.95243568 123.51083111 -105.1875 119.4375 C-104.45144531 119.128125 -103.71539062 118.81875 -102.95703125 118.5 C-96.97382653 115.82487454 -92.10898188 111.70540909 -87.1875 107.4375 C-86.14916016 106.54417969 -86.14916016 106.54417969 -85.08984375 105.6328125 C-74.72550334 96.03085896 -65.79445133 81.7070573 -64.81640625 67.4296875 C-64.50242242 56.68446302 -65.86429917 47.0345288 -71.91796875 37.796875 C-73.1875 35.4375 -73.1875 35.4375 -73.25390625 33.4453125 C-71.58223104 30.29790936 -68.91380243 28.42252837 -66.125 26.3125 C-65.50302734 25.83530518 -64.88105469 25.35811035 -64.24023438 24.86645508 C-53.0432629 16.42555407 -41.41143305 9.22986532 -28.1875 4.4375 C-27.10082031 4.025 -26.01414062 3.6125 -24.89453125 3.1875 C-16.58123334 0.48215559 -8.69696986 0.05784851 0 0 Z " fill="#3FB9B2" transform="translate(181.1875,70.5625)"/>
<path d="M0 0 C68.31 0 136.62 0 207 0 C207 52.14 207 104.28 207 158 C138.69 158 70.38 158 0 158 C0 105.86 0 53.72 0 0 Z " fill="#606770" transform="translate(289,239)"/>
<path d="M0 0 C53.79 0 107.58 0 163 0 C163 18.81 163 37.62 163 57 C140.89 57 118.78 57 96 57 C95.01 50.07 95.01 50.07 94 43 C90.68851842 35.17286171 85.64447943 28.40073638 77.59375 24.9765625 C72.68974968 23.63517418 67.68703689 22.9501115 62.66796875 22.1875 C14.83781544 14.83781544 14.83781544 14.83781544 0 0 Z " fill="#FDFDFD" transform="translate(109,306)"/>
<path d="M0 0 C6.12160977 4.25851115 8.33149059 10.93401927 10.91796875 17.68359375 C12.2020305 20.79154729 13.84986706 23.31967699 15.875 26 C16.41640625 26.77537109 16.41640625 26.77537109 16.96875 27.56640625 C25.4374472 38.69448093 39.40014466 45.40527244 51.875 51 C52.49487793 51.27827637 53.11475586 51.55655273 53.75341797 51.84326172 C68.89731952 58.51527577 85.46124701 63.23306004 101.9375 64.9375 C115.39541623 66.52041623 115.39541623 66.52041623 120.375 71.5 C122.47823424 76.40754657 122.79709059 80.74095788 121.875 86 C119.98357808 89.64567965 117.27840567 91.73106289 113.875 94 C80.41070313 98.4735258 36.19412458 80.00623952 10 60.0625 C-2.7253551 50.039755 -12.00683496 39.0325227 -18.125 24 C-18.558125 22.989375 -18.99125 21.97875 -19.4375 20.9375 C-20.62788462 15.85131117 -21.59496585 10.60107593 -18.921875 5.87109375 C-13.62121299 -0.5405656 -8.24474881 -2.63831962 0 0 Z " fill="#F0C54E" transform="translate(66.125,278)"/>
<path d="M0 0 C1.24219299 -0.00708481 2.48438599 -0.01416962 3.76422119 -0.02146912 C5.14328039 -0.01917521 6.52233925 -0.0166655 7.90139771 -0.01396179 C9.35183983 -0.01830839 10.80227966 -0.02349136 12.25271606 -0.02944946 C16.19492298 -0.04285765 20.13703412 -0.04341603 24.0792594 -0.04088616 C27.36952111 -0.0398175 30.65976336 -0.04469723 33.95002091 -0.04949158 C41.71279929 -0.06059346 49.47552929 -0.06102062 57.23831177 -0.05497742 C65.24710038 -0.04893853 73.25571326 -0.06124485 81.26447189 -0.08254749 C88.13929963 -0.10016171 95.01407143 -0.10616506 101.8889209 -0.10290974 C105.99542206 -0.10109616 110.10179792 -0.10374032 114.20827866 -0.11762428 C118.07099774 -0.13019485 121.93344299 -0.12826599 125.79615784 -0.11521339 C127.21311154 -0.11284621 128.63008447 -0.11558742 130.04701614 -0.12383652 C131.9828163 -0.13429278 133.91869437 -0.12440689 135.85449219 -0.11352539 C136.93738966 -0.11369313 138.02028713 -0.11386087 139.13599968 -0.1140337 C143.49612626 0.44585044 146.1011736 2.43643164 149.36672974 5.26069641 C151.95035076 9.85380045 152.03936421 14.12182332 151.05422974 19.26069641 C148.68442686 23.56456421 145.58797718 26.39220705 141.05422974 28.26069641 C138.32989693 28.515172 138.32989693 28.515172 135.14678955 28.52139282 C133.33409073 28.53202003 133.33409073 28.53202003 131.48477173 28.54286194 C130.14871178 28.54056819 128.8126522 28.5380585 127.47659302 28.53535461 C126.0670342 28.53970269 124.65747775 28.54488617 123.2479248 28.55084229 C119.42140793 28.56423438 115.59498982 28.56481065 111.76845407 28.56227899 C108.57267871 28.56120925 105.37692332 28.56609279 102.18115222 28.57088441 C94.64029437 28.58198067 87.09948633 28.58241657 79.55862427 28.57637024 C71.78329593 28.57033167 64.0081486 28.58263815 56.23285115 28.60394031 C49.55416401 28.62156423 42.87553444 28.62755636 36.19682491 28.62430257 C32.20935386 28.62249056 28.22201189 28.62511744 24.23456192 28.63901711 C20.48344933 28.65160347 16.73261849 28.64964387 12.98151016 28.63660622 C10.95258091 28.63311735 8.92364303 28.64441292 6.89474487 28.65617371 C5.68063934 28.64915939 4.46653381 28.64214508 3.21563721 28.63491821 C1.63886798 28.63516983 1.63886798 28.63516983 0.03024483 28.63542652 C-4.79467292 28.02788862 -8.01799445 26.28877232 -11.25827026 22.69819641 C-14.5012133 18.01394535 -14.72913949 13.87340782 -13.94577026 8.26069641 C-10.83206199 2.34585289 -6.48565641 0.01230355 0 0 Z " fill="#EFC34D" transform="translate(155.94577026367188,413.7393035888672)"/>
<path d="M0 0 C8.65637733 5.17902917 14.58524614 11.36511342 17.828125 21.09375 C18.5975739 32.20661033 18.02108652 40.86420717 11.640625 50.34375 C4.38796559 57.4352392 -3.04069379 61.33244602 -13.296875 61.59375 C-22.08115096 61.45568672 -28.66934848 58.9845202 -35.328125 53.23046875 C-39.56768724 48.74838918 -41.96925166 43.80162339 -44.171875 38.09375 C-44.501875 37.43375 -44.831875 36.77375 -45.171875 36.09375 C-45.89453596 27.83645998 -45.39218801 21.27850433 -41.171875 14.09375 C-40.57375 13.041875 -39.975625 11.99 -39.359375 10.90625 C-30.14717742 -0.93800404 -14.38241994 -6.75348415 0 0 Z " fill="#000202" transform="translate(72.171875,107.90625)"/>
<path d="M0 0 C2.1985541 2.1985541 3.16639264 4.16517284 4.5625 6.9375 C21.02452055 37.53843357 55.91389457 54.90305198 87.73828125 65.02734375 C90.10609074 65.73343305 92.47453379 66.40836498 94.85546875 67.06640625 C98 68 98 68 99 69 C99.21321057 71.73324106 99.3771175 74.44995103 99.5 77.1875 C99.56972001 78.70197346 99.64258222 80.21630588 99.71875 81.73046875 C99.75436035 82.46144775 99.7899707 83.19242676 99.82666016 83.94555664 C99.97049151 86.21986978 99.97049151 86.21986978 100.7421875 89.2578125 C101 92 101 92 99.6015625 94.44921875 C98.94929688 95.18785156 98.29703125 95.92648437 97.625 96.6875 C94.74130192 100.00081831 94.74130192 100.00081831 93 104 C87.98584058 103.44287118 83.93948819 101.78249785 79.5 99.5 C78.80366455 99.14542725 78.1073291 98.79085449 77.38989258 98.42553711 C65.9768156 92.50078649 55.74998198 85.40355589 46 77 C45.27039063 76.39285156 44.54078125 75.78570312 43.7890625 75.16015625 C39.03307654 71.14216811 34.93308077 66.82145631 31 62 C30.23816406 61.07574219 29.47632812 60.15148437 28.69140625 59.19921875 C16.49325038 44.07929116 0 20.1519257 0 0 Z " fill="#00669C" transform="translate(35,313)"/>
<path d="M0 0 C1.33417969 -0.00386719 1.33417969 -0.00386719 2.6953125 -0.0078125 C4.875 0.125 4.875 0.125 5.875 1.125 C6.54896796 7.46029881 4.81604126 12.51893753 1.875 18.125 C-0.625 21.0625 -0.625 21.0625 -3.125 23.125 C-3.71796875 23.62773437 -4.3109375 24.13046875 -4.921875 24.6484375 C-7.52241054 26.39134962 -9.84487406 27.05496851 -12.875 27.8125 C-14.35226562 28.18955078 -14.35226562 28.18955078 -15.859375 28.57421875 C-16.60703125 28.75597656 -17.3546875 28.93773437 -18.125 29.125 C-17.54492188 29.35574219 -16.96484375 29.58648437 -16.3671875 29.82421875 C-8.18986784 33.23818224 -2.80667612 37.10099665 0.953125 45.31640625 C3.22228004 52.22963706 2.83191999 58.80957389 -0.125 65.4375 C-3.40903117 71.21478996 -7.75849644 75.74398956 -13.953125 78.28515625 C-21.14963576 80.19063632 -29.35540764 80.5385296 -36.125 77.125 C-41.95447084 73.30381986 -46.00546548 67.7413848 -48.125 61.125 C-48.91591663 53.69038368 -49.50857236 46.02748904 -44.75 39.8359375 C-39.25197011 34.04714641 -34.62066243 29.27239877 -26.3125 29 C-24.7346875 29.061875 -24.7346875 29.061875 -23.125 29.125 C-23.17720703 28.2896875 -23.17720703 28.2896875 -23.23046875 27.4375 C-23.52297865 19.19150656 -21.42572743 12.57183066 -16.125 6.125 C-10.96180462 2.25782937 -6.53858218 -0.01906292 0 0 Z " fill="#FDFDFD" transform="translate(422.125,268.875)"/>
<path d="M0 0 C7.74980924 6.58804625 15.30779818 15.60783969 16.30078125 26.15625 C16.63939116 39.70064622 11.55532525 49.25918984 2.73828125 59.26171875 C-2.60872198 64.87733125 -8.01612488 69.13714849 -14.9375 72.625 C-15.72769531 73.04910156 -16.51789063 73.47320312 -17.33203125 73.91015625 C-24.95190295 77.54159753 -32.45974686 77.26328507 -40.484375 74.86328125 C-51.49033844 70.36601688 -61.35617951 61.42797986 -66.1953125 50.5078125 C-70.48715903 39.6200755 -69.86937917 28.57491256 -65.9375 17.625 C-60.67092464 6.30432399 -52.39004915 -1.48514755 -40.9375 -6.375 C-26.72183859 -11.05357211 -12.02603638 -8.92384274 0 0 Z M-49.9375 12.5 C-56.81349308 21.23754243 -58.85055769 29.57828796 -57.9375 40.625 C-57.05337517 43.95436149 -55.72759675 46.69169505 -53.9375 49.625 C-53.51339844 50.32367188 -53.08929688 51.02234375 -52.65234375 51.7421875 C-48.12899559 58.42011097 -41.62964934 63.15452868 -33.9375 65.625 C-25.29300884 66.46597991 -17.4385048 66.3702329 -9.9375 61.625 C-9.22980469 61.18929687 -8.52210937 60.75359375 -7.79296875 60.3046875 C-0.88646611 55.61492875 2.84947885 49.62666598 5.0625 41.625 C6.02705279 31.91855299 5.76549123 23.89433729 0.0625 15.625 C-0.659375 14.5525 -1.38125 13.48 -2.125 12.375 C-9.81429201 4.85658114 -17.37667011 2.25431623 -27.93945312 2.171875 C-36.78152353 2.39313951 -43.95096161 6.08222791 -49.9375 12.5 Z " fill="#007DC0" transform="translate(84.9375,103.375)"/>
<path d="M0 0 C1.69248952 0.01120489 3.38499863 0.01973897 5.07751465 0.02572632 C9.51015928 0.04852341 13.94160503 0.1073656 18.3737793 0.1739502 C22.90527126 0.23557133 27.4369589 0.26278343 31.96875 0.29296875 C40.84435875 0.35712026 49.71876664 0.4625684 58.59375 0.5859375 C58.59375 6.5259375 58.59375 12.4659375 58.59375 18.5859375 C18.66375 18.5859375 -21.26625 18.5859375 -62.40625 18.5859375 C-62.40625 14.9559375 -62.40625 11.3259375 -62.40625 7.5859375 C-61.16875 7.69421875 -61.16875 7.69421875 -59.90625 7.8046875 C-53.25735148 8.33897399 -46.63815245 8.71057791 -39.96875 8.7734375 C-38.05255859 8.79470703 -38.05255859 8.79470703 -36.09765625 8.81640625 C-30.29165065 8.4539149 -26.42581203 7.62282681 -22.27368164 3.53735352 C-15.86961768 -1.32906922 -7.64869974 -0.14907337 0 0 Z " fill="#A3A7AA" transform="translate(213.40625,378.4140625)"/>
<path d="M0 0 C7.47584448 -0.06960318 14.95161873 -0.12286342 22.42772198 -0.15543652 C25.8994411 -0.17107243 29.37093803 -0.19227212 32.8425293 -0.22631836 C36.83644712 -0.26524063 40.83013263 -0.27972629 44.82421875 -0.29296875 C46.06709152 -0.30845261 47.30996429 -0.32393646 48.59049988 -0.33988953 C49.75132584 -0.34011612 50.91215179 -0.34034271 52.1081543 -0.34057617 C53.63704536 -0.35056892 53.63704536 -0.35056892 55.19682312 -0.36076355 C59.73961729 0.22388545 62.27543114 2.17479657 65.25 5.5625 C68.15285249 9.60575883 68.41128876 11.98227717 68 17 C66.32162688 21.85312709 63.8633438 24.61314012 59.3155365 27.14179993 C54.37506499 28.97287148 49.04534143 28.47925888 43.84765625 28.390625 C42.59238632 28.38496521 41.33711639 28.37930542 40.04380798 28.37347412 C36.7274968 28.35494054 33.41231293 28.31908767 30.09631348 28.2746582 C26.70428135 28.23353279 23.31213215 28.21542654 19.91992188 28.1953125 C13.27963958 28.15130094 6.63988479 28.08442904 0 28 C0.9296875 22.3046875 0.9296875 22.3046875 1.5625 19.5625 C2.4375743 14.43706481 2.03704226 9.81483999 0.98828125 4.76171875 C0.80434814 3.86799561 0.62041504 2.97427246 0.4309082 2.0534668 C0.2887085 1.37582275 0.14650879 0.69817871 0 0 Z " fill="#BE9C3D" transform="translate(321,414)"/>
<path d="M0 0 C4.2322468 2.7843729 4.71546905 6.29005317 6 11 C7.02421261 13.10938785 7.02421261 13.10938785 9 14 C12.55125329 14.24285895 12.55125329 14.24285895 16 13 C17.94147258 10.28407658 17.94147258 10.28407658 19 7 C20.88888889 2.11111111 20.88888889 2.11111111 23 0 C29.89721886 -0.66747279 29.89721886 -0.66747279 33.375 1.4375 C35.67872945 5.07030414 36.31671105 8.79237856 37 13 C38.43410368 13.24954005 39.87260072 13.47392642 41.3125 13.6875 C42.11300781 13.81511719 42.91351563 13.94273437 43.73828125 14.07421875 C46.03759044 14.20564181 46.03759044 14.20564181 47.69921875 12.8046875 C49.64843104 10.10037496 50.27874872 7.23953589 51.15625 4.05859375 C52 2 52 2 55 0 C56.9375 -0.30078125 56.9375 -0.30078125 59 -0.3125 C59.680625 -0.32925781 60.36125 -0.34601563 61.0625 -0.36328125 C63.65116184 0.12209285 64.48287946 0.85654529 66 3 C67.07483987 8.99392683 66.46492246 14.86364427 63.3984375 20.1484375 C59.46424879 25.35739127 54.55403488 29.84340561 48 31 C41.38117023 31.64250582 36.40243844 31.38114888 30.65625 27.875 C28.87009934 26.76643948 28.87009934 26.76643948 26 27 C24.64914193 27.63040043 23.31747324 28.30251417 22 29 C16.02467872 31.72047148 10.0130406 32.27408929 3.69921875 30.26953125 C-2.88167971 27.23314684 -7.74848711 22.14752374 -11.1875 15.8125 C-12.34083386 11.8201905 -12.59945307 8.11931856 -12 4 C-9.2198488 -0.74942496 -5.05690269 -1.00929951 0 0 Z " fill="#000202" transform="translate(183,207)"/>
<path d="M0 0 C10.1471426 7.19220547 17.05652342 16.79622779 19.55859375 29.0390625 C21.29169995 40.66467754 19.13424085 51.58707097 12.25 61.375 C8.68930575 65.62753898 4.68667698 70.00904796 0 73 C-2.1640625 72.96875 -2.1640625 72.96875 -4 72 C-5.046875 70.15234375 -5.046875 70.15234375 -5.75 67.9375 C-5.99234375 67.20402344 -6.2346875 66.47054687 -6.484375 65.71484375 C-6.65453125 65.14894531 -6.8246875 64.58304687 -7 64 C-6.39671875 63.5153125 -5.7934375 63.030625 -5.171875 62.53125 C0.05095284 58.15081375 3.6369298 54.42337315 6 48 C6.61875 46.3603125 6.61875 46.3603125 7.25 44.6875 C9.28826384 34.66603611 7.95921333 27.47764785 2.6796875 18.83984375 C-2.04827365 11.928753 -7.98860221 8.25911466 -16 6 C-25.78446409 5.05470046 -33.32281317 6.66140658 -42 11 C-43.98 8.69 -45.96 6.38 -48 4 C-45.759739 -0.480522 -45.02053281 -0.81969316 -40.625 -2.6875 C-39.66851562 -3.10386719 -38.71203125 -3.52023438 -37.7265625 -3.94921875 C-25.07554751 -8.82475318 -11.43486739 -6.84959878 0 0 Z " fill="#007DC0" transform="translate(327,101)"/>
<path d="M0 0 C2.1985541 2.1985541 3.16639264 4.16517284 4.5625 6.9375 C17.73806516 31.42930483 41.75613197 45.42629416 66 57 C66 57.33 66 57.66 66 58 C60.75351286 58.29863971 55.51204534 58.51522211 50.2590332 58.65917969 C48.47658084 58.71921339 46.69471188 58.80088165 44.91430664 58.90527344 C30.19968118 59.74587372 30.19968118 59.74587372 24.94921875 55.57861328 C22.600307 52.49566661 20.77181477 49.44271508 19 46 C18.0650535 44.5045755 17.12563087 43.0119302 16.1796875 41.5234375 C15.39878265 40.14774346 14.63047839 38.76481972 13.875 37.375 C13.25625 36.24674805 13.25625 36.24674805 12.625 35.09570312 C6.73990019 24.08398686 1.80192926 12.41329044 0 0 Z " fill="#C7C7C7" transform="translate(35,313)"/>
<path d="M0 0 C5.00223385 2.28433189 10.24618646 3.67117053 15.53295898 5.13720703 C20.81763495 6.61450995 20.81763495 6.61450995 21.90234375 7.69921875 C22.11555432 10.43245981 22.27946125 13.14916978 22.40234375 15.88671875 C22.63320253 20.90148455 22.95603449 25.75475286 23.90234375 30.69921875 C19.09546173 30.15215327 15.29420436 28.68165073 11.08984375 26.38671875 C10.4467627 26.03770508 9.80368164 25.68869141 9.14111328 25.32910156 C-4.2117823 17.87766596 -16.41486318 8.6421146 -27.09765625 -2.30078125 C-27.09765625 -2.63078125 -27.09765625 -2.96078125 -27.09765625 -3.30078125 C-16.83661902 -4.7839798 -9.6066759 -4.41284848 0 0 Z " fill="#007FC4" transform="translate(112.09765625,374.30078125)"/>
<path d="M0 0 C3.5939426 4.14760402 3.87938567 7.86498482 3.76171875 13.19921875 C3.14760483 17.99082363 0.44077891 20.6448505 -2.8046875 23.98046875 C-7.36494783 26.77881031 -11.47961782 27.08298269 -16.6796875 26.04296875 C-21.01622038 23.96897476 -24.44550468 21.53341258 -26.9296875 17.35546875 C-28.09867014 12.32884342 -28.12948214 8.29655355 -26.4296875 3.48046875 C-23.73533032 -0.56106702 -20.85429415 -3.48480775 -16.1796875 -5.20703125 C-9.0457725 -5.54674149 -5.27530889 -4.77231433 0 0 Z " fill="#6E757D" transform="translate(482.5546875,329.33203125)"/>
<path d="M0 0 C4.55312584 2.30661656 8.15175205 5.14947612 10 10 C10.7500384 15.90289963 10.45404174 20.99759473 7 26 C2.23324244 30.52230846 -1.43494775 31.40311331 -7.98046875 31.26953125 C-12.22468195 30.70308887 -14.82938506 28.42388783 -17.48046875 25.19921875 C-20.543029 20.78123967 -21.89655034 17.47891877 -21 12 C-17.23168026 2.49902363 -9.99126592 -1.55840445 0 0 Z " fill="#EEC34D" transform="translate(64,122)"/>
<path d="M0 0 C0.66914429 -0.00004028 1.33828857 -0.00008057 2.02770996 -0.00012207 C3.43637533 0.00521721 4.84504154 0.02273242 6.25341797 0.05175781 C8.40034748 0.09363487 10.5441368 0.09282135 12.69140625 0.0859375 C25.49625282 0.18375282 25.49625282 0.18375282 29.90625 4.59375 C30.49640523 11.79364377 30.49640523 11.79364377 28.36010742 14.68994141 C25.07002768 17.2425274 22.21941842 17.18808358 18.21875 17.16015625 C17.47923096 17.16635483 16.73971191 17.17255341 15.9777832 17.17893982 C14.41781935 17.18602813 12.8577797 17.18288107 11.29785156 17.17016602 C8.91329652 17.156291 6.5326616 17.19038575 4.1484375 17.22851562 C2.63020738 17.22946682 1.11197235 17.22760796 -0.40625 17.22265625 C-1.11676514 17.23591446 -1.82728027 17.24917267 -2.55932617 17.26283264 C-6.29337746 17.19272059 -7.80764168 16.86891788 -10.5390625 14.24194336 C-12.46559761 10.96035946 -12.79571013 9.33753738 -12.09375 5.59375 C-8.3619055 0.86535318 -5.95338921 -0.03401937 0 0 Z " fill="#ECB0B6" transform="translate(108.09375,233.40625)"/>
<path d="M0 0 C0.33 0 0.66 0 1 0 C1.02578125 0.79921875 1.0515625 1.5984375 1.078125 2.421875 C1.82607318 16.9048716 6.47155965 28.99090621 16 40 C26.22724202 48.64886451 36.01944644 52.35172632 49 55 C45.80602584 58.19397416 42.34072122 58.94953371 37.88671875 59.1171875 C24.67892331 58.11732997 15.74292854 53.28284008 6.75 43.625 C-0.4527461 35.20767319 -3.42367122 26.3067211 -3.26953125 15.22265625 C-2.8310832 9.98034257 -1.4979844 5.02894761 0 0 Z " fill="#006499" transform="translate(19,121)"/>
<path d="M0 0 C0.66 0 1.32 0 2 0 C1.42307966 4.62701766 0.51822269 8.91098205 -0.8125 13.375 C-5.44302722 30.16173904 -7.72749715 47.00105402 -6.67675781 64.40942383 C-6.47160683 69.61656601 -6.35727573 72.95698636 -9.890625 76.99609375 C-10.69161621 77.74137329 -10.69161621 77.74137329 -11.50878906 78.50170898 C-13.94873133 80.95323578 -14.82000731 83.78779767 -16 87 C-16.33 87 -16.66 87 -17 87 C-18.45995334 57.31428216 -11.56779079 27.29358933 0 0 Z " fill="#308E89" transform="translate(47,196)"/>
<path d="M0 0 C4.11431714 1.4241867 7.37911044 3.50591446 10.08203125 6.99609375 C12.11209855 11.42768748 11.71132851 16.27936531 11 21 C9.51226682 24.769887 7.386057 26.74262867 4 29 C3.58637207 28.34402832 3.17274414 27.68805664 2.74658203 27.01220703 C0.875421 24.04809039 -0.99973609 21.08652246 -2.875 18.125 C-3.52597656 17.09246094 -4.17695313 16.05992187 -4.84765625 14.99609375 C-5.47285156 14.00996094 -6.09804688 13.02382812 -6.7421875 12.0078125 C-7.3182373 11.09660645 -7.89428711 10.18540039 -8.48779297 9.24658203 C-9.94407655 6.92809012 -9.94407655 6.92809012 -12 5 C-12 4.01 -12 3.02 -12 2 C-7.93446456 -0.71035696 -4.76828227 -0.51526892 0 0 Z " fill="#ECC24D" transform="translate(308,122)"/>
<path d="M0 0 C3.4375 0.6875 3.4375 0.6875 5.875 2.5 C8.1818435 7.20596075 8.21441801 11.54240014 7.4375 16.6875 C5.42310288 19.94152611 4.08773321 20.46614401 0.5 21.6875 C-2.5625 21.6875 -2.5625 21.6875 -5.375 19.9375 C-8.30724177 16.92147989 -8.52642673 15.05424489 -8.9375 10.875 C-8.8847468 7.70394638 -8.36771837 5.76556372 -6.5 3.1875 C-3.5625 0.6875 -3.5625 0.6875 0 0 Z " fill="#020807" transform="translate(303.5625,194.3125)"/>
<path d="M0 0 C5.42158488 1.6757626 5.42158488 1.6757626 7.4375 5.0625 C8.15961701 9.96098444 8.46870978 14.39669958 5.8125 18.6875 C2.83580119 20.41085194 0.89507668 21.0625 -2.5625 21.0625 C-5.93795234 18.96221854 -7.29650961 17.86047116 -8.5625 14.0625 C-9.1939678 9.24530276 -9.22575804 6.06743642 -6.5 1.9375 C-3.5625 0.0625 -3.5625 0.0625 0 0 Z " fill="#020606" transform="translate(117.5625,194.9375)"/>
<path d="M0 0 C4.63886161 1.37057275 8.6186211 3.34634913 12.75 5.8125 C18.39220895 9.11393641 24.10200196 12.1733097 30 15 C30 15.33 30 15.66 30 16 C15.9583826 17.77783667 15.9583826 17.77783667 11.14746094 14.88671875 C6.41988001 10.83689721 2.52792898 5.69129366 0 0 Z " fill="#F3F4F5" transform="translate(71,355)"/>
<path d="M0 0 C1.23110723 1.84666084 2.42730755 3.71787668 3.5625 5.625 C4.79487437 7.87447041 4.79487437 7.87447041 6 9 C7.4924052 9.10783729 8.9898465 9.14682146 10.48609924 9.15821838 C11.45510162 9.1680072 12.424104 9.17779602 13.42247009 9.18788147 C14.49420975 9.19363693 15.5659494 9.1993924 16.67016602 9.20532227 C17.79197266 9.21522186 18.9137793 9.22512146 20.06958008 9.23532104 C23.79766694 9.26704559 27.52576656 9.29173662 31.25390625 9.31640625 C33.83080893 9.33696633 36.40770817 9.35796253 38.98460388 9.37937927 C45.08671926 9.42903593 51.18885291 9.47427578 57.29101747 9.51740164 C64.23652642 9.56673222 71.18198746 9.62166579 78.12745011 9.67708123 C92.4182551 9.79097648 106.70910684 9.89779901 121 10 C121 10.33 121 10.66 121 11 C81.07 11 41.14 11 0 11 C0 7.37 0 3.74 0 0 Z " fill="#999DA0" transform="translate(151,386)"/>
<path d="M0 0 C2 3 2 3 3.375 5.5 C5.01605808 8.02470474 6.50310264 9.36410173 9 11 C6.03 11 3.06 11 0 11 C0 7.37 0 3.74 0 0 Z " fill="#8D9093" transform="translate(151,386)"/>
</svg>
